<?xml version="1.0" encoding="UTF-8" standalone="no"?>
<!-- Generator: Fusion 360, Shaper Origin Export Add-In, Version 1.5.0  -->

<svg
   xmlns:shaper="http://www.shapertools.com/namespaces/shaper"
   xmlns:dc="http://purl.org/dc/elements/1.1/"
   xmlns:cc="http://creativecommons.org/ns#"
   xmlns:rdf="http://www.w3.org/1999/02/22-rdf-syntax-ns#"
   xmlns:svg="http://www.w3.org/2000/svg"
   xmlns="http://www.w3.org/2000/svg"
   xmlns:sodipodi="http://sodipodi.sourceforge.net/DTD/sodipodi-0.dtd"
   xmlns:inkscape="http://www.inkscape.org/namespaces/inkscape"
   enable-background="new 0 0 11.7529352 4.1226647"
   height="2.1046894cm"
   shaper:fusionaddin="version:1.5.0"
   version="1.1"
   viewBox="0 0 5.9999999 2.1046892"
   width="6cm"
   x="0cm"
   xml:space="preserve"
   y="0cm"
   id="svg150"
   sodipodi:docname="LogoRSA.svg"
   inkscape:version="0.92.4 (5da689c313, 2019-01-14)"><metadata
     id="metadata156"><rdf:RDF><cc:Work
         rdf:about=""><dc:format>image/svg+xml</dc:format><dc:type
           rdf:resource="http://purl.org/dc/dcmitype/StillImage" /><dc:title></dc:title></cc:Work></rdf:RDF></metadata><defs
     id="defs154" /><sodipodi:namedview
     pagecolor="#ffffff"
     bordercolor="#666666"
     borderopacity="1"
     objecttolerance="10"
     gridtolerance="10"
     guidetolerance="10"
     inkscape:pageopacity="0"
     inkscape:pageshadow="2"
     inkscape:window-width="1920"
     inkscape:window-height="1001"
     id="namedview152"
     showgrid="false"
     inkscape:zoom="2.0576065"
     inkscape:cx="210.50377"
     inkscape:cy="81.351286"
     inkscape:window-x="-9"
     inkscape:window-y="-9"
     inkscape:window-maximized="1"
     inkscape:current-layer="svg150"
     fit-margin-top="0"
     fit-margin-left="0"
     fit-margin-right="0"
     fit-margin-bottom="0" /><path
     d="m 1.0940712,0.8258073 0.00377,-0.049572 0.012635,0.00584 0.00243,0.035654 -0.00837,0.00393 -2.934e-4,1.276e-4 z"
     shaper:cutDepth="0"
     shaper:pathType="exterior"
     id="path2"
     inkscape:connector-curvature="0"
     style="vector-effect:non-scaling-stroke;fill:#000000;stroke-width:0.51051074" /><path
     d="m 1.0978444,0.7762358 -0.00377,0.049572 0.010165,-0.00402 2.935e-4,-1.276e-4 0.00837,-0.00393 -0.00243,-0.035655 z"
     shaper:cutDepth="0"
     shaper:pathType="exterior"
     id="path4"
     inkscape:connector-curvature="0"
     style="vector-effect:non-scaling-stroke;fill:#000000;stroke-width:0.51051074" /><path
     d="m 1.0157638,0.8440359 0.010545,-0.00209 0.00249,-5.156e-4 -0.00676,-0.031631 z"
     shaper:cutDepth="0"
     shaper:pathType="exterior"
     id="path6"
     inkscape:connector-curvature="0"
     style="vector-effect:non-scaling-stroke;fill:#000000;stroke-width:0.51051074" /><path
     d="m 1.026309,0.8419457 -0.010545,0.00209 0.00627,-0.034237 0.00676,0.031631 z"
     shaper:cutDepth="0"
     shaper:pathType="exterior"
     id="path8"
     inkscape:connector-curvature="0"
     style="vector-effect:non-scaling-stroke;fill:#000000;stroke-width:0.51051074" /><path
     d="m 1.0545263,0.9104865 -0.00722,0.017511 -0.018506,-0.086568 0.045128,-0.00972 0.00781,-0.00199 4.057e-4,-1.133e-4 0.011931,-0.00381 -0.010666,0.1401307 z"
     shaper:cutDepth="0"
     shaper:pathType="exterior"
     id="path10"
     inkscape:connector-curvature="0"
     style="vector-effect:non-scaling-stroke;fill:#000000;stroke-width:0.51051074" /><path
     d="m 1.0473066,0.9279975 0.00722,-0.017511 0.028879,0.055451 0.010666,-0.1401307 -0.011931,0.00381 -4.058e-4,1.133e-4 -0.00781,0.00199 -0.045128,0.00971 z"
     shaper:cutDepth="0"
     shaper:pathType="exterior"
     id="path12"
     inkscape:connector-curvature="0"
     style="vector-effect:non-scaling-stroke;fill:#000000;stroke-width:0.51051074" /><path
     d="m 0.99266701,0.8486102 -0.0139227,0.00256 -2.139e-4,3.81e-5 0.005604,-0.069132 0.00722,0.053019 z"
     shaper:cutDepth="0"
     shaper:pathType="exterior"
     id="path14"
     inkscape:connector-curvature="0"
     style="vector-effect:non-scaling-stroke;fill:#000000;stroke-width:0.51051074" /><path
     d="m 0.97874436,0.8511667 0.0139227,-0.00256 -0.001312,-0.013518 -0.00722,-0.053019 -0.005604,0.069132 z"
     shaper:cutDepth="0"
     shaper:pathType="exterior"
     id="path16"
     inkscape:connector-curvature="0"
     style="vector-effect:non-scaling-stroke;fill:#000000;stroke-width:0.51051074" /><path
     d="m 1.0003785,0.9279975 0.015385,-0.083962 -0.023097,0.00457 z"
     shaper:cutDepth="0"
     shaper:pathType="exterior"
     id="path18"
     inkscape:connector-curvature="0"
     style="vector-effect:non-scaling-stroke;fill:#000000;stroke-width:0.51051074" /><path
     d="m 1.0157638,0.8440359 -0.015385,0.083962 -0.007711,-0.079387 z"
     shaper:cutDepth="0"
     shaper:pathType="exterior"
     id="path20"
     inkscape:connector-curvature="0"
     style="vector-effect:non-scaling-stroke;fill:#000000;stroke-width:0.51051074" /><path
     d="m 0.86320424,0.8195268 0.0342936,-0.087068 0.0116994,0.1280086 -0.002614,1.284e-4 -1.5994e-4,6.8e-6 -0.007042,1.583e-4 H 0.851249 L 0.85779,0.8039619 Z"
     shaper:cutDepth="0"
     shaper:pathType="exterior"
     id="path22"
     inkscape:connector-curvature="0"
     style="vector-effect:non-scaling-stroke;fill:#000000;stroke-width:0.51051074" /><path
     d="m 0.89749786,0.7324584 -0.0342936,0.087068 -0.005415,-0.015565 -0.006541,0.056799 h 0.0481305 l 0.007042,-1.583e-4 1.5995e-4,-6.8e-6 0.002614,-1.284e-4 z"
     shaper:cutDepth="0"
     shaper:pathType="exterior"
     id="path24"
     inkscape:connector-curvature="0"
     style="vector-effect:non-scaling-stroke;fill:#000000;stroke-width:0.51051074" /><path
     d="m 0.70473665,0.8607605 0.0104639,-0.1813214 0.005625,0.1813214 z"
     shaper:cutDepth="0"
     shaper:pathType="exterior"
     id="path26"
     inkscape:connector-curvature="0"
     style="vector-effect:non-scaling-stroke;fill:#000000;stroke-width:0.51051074" /><path
     d="m 0.71520049,0.6794391 -0.0104639,0.1813214 h 0.0160893 z"
     shaper:cutDepth="0"
     shaper:pathType="exterior"
     id="path28"
     inkscape:connector-curvature="0"
     style="vector-effect:non-scaling-stroke;fill:#000000;stroke-width:0.51051074" /><path
     d="m 1.1205351,0.4809864 -0.042092,-0.016262 -0.044538,-0.00991 -0.04308,-0.00542 L 0.9474167,0.4467244 0.910618,0.446092 H 0.63093554 v 0.4146732 h 0.0738011 l -0.007585,0.1314439 -0.0270739,-0.017025 -0.0180492,-0.1128484 -0.0108296,0.040373 -0.0216591,-0.086095 -0.0162443,0.038427 -0.0144394,0.048642 -0.0126345,-0.022861 -0.0144394,-0.027726 -0.0108295,0.1026337 -0.023464,-0.059343 -0.0198542,-0.00195 -0.009025,0.055451 -0.00722,0.027239 -0.009025,-0.048642 -0.0144394,-0.066639 -0.0162444,0.1254952 -0.0342936,-0.1045794 -0.0144394,-0.2801753 -0.0180493,0.3988608 -0.00361,-0.2232648 -0.0198542,-0.050587 -0.0126345,0.1921342 -0.009025,-0.05156 -0.0216591,-0.100688 -0.0126345,0.099715 -0.005415,-0.068098 -0.0108296,0.1590579 -0.0144394,-0.1775417 -0.0162443,0.033563 -0.00722,-0.048155 -0.0162443,0.1731639 -0.0108295,0.068098 -0.0108296,-0.010215 -0.00722,-0.1327915 -0.00722,-0.064693 -0.0108296,-0.038427 -0.0162443,0.047669 -0.005415,0.1138212 -0.0162443,0.010701 -0.0162443,0.1702455 -0.001396,-0.00369 -4.0861e-4,3.215e-4 -0.003356,-0.058821 -0.001805,0.017025 -0.00361,-0.00973 -0.001089,0.044604 -0.0115456,0.011334 -0.00722,-0.079286 -0.0036099,0.054479 -0.01212126,0.013473 -5.1317e-4,-0.015905 -0.01263448,0.00486 -0.0054148,-0.061288 -0.0090246,0.071503 -0.0090247,-0.063234 -0.0036098,0.05156 -0.005516,0.014478 -0.0017037,-0.059228 -0.0049061,-0.009 L 0.02385724,1.0972608 0.01333832,1.0165986 0.00882602,1.0963707 0,1.0974685 V 0.0376969 h 1.051395 l 0.044846,3.044e-4 0.043164,9.132e-4 0.041481,0.00152 0.039799,0.00213 0.045538,0.00336 0.043116,0.00424 0.040693,0.00511 0.044413,0.00707 0.041116,0.00827 0.042952,0.010909 0.043648,0.014351 0.040975,0.017582 0.038606,0.02095 0.036238,0.024318 0.033869,0.027686 0.0315,0.031055 0.029132,0.034423 0.025626,0.03613 0.022399,0.038459 0.018943,0.040607 0.014758,0.040451 L 1.756642,0.6716532 1.673615,0.4566575 1.593415,0.7053077 1.5562952,0.3117089 1.5407994,0.4234806 1.5157444,0.685069 1.4906893,0.8874887 1.4227308,0.2022654 1.4082914,0.6123137 1.3685831,0.3423531 1.345119,0.2834968 1.3321361,0.2308189 1.3144354,0.9046496 1.2855565,0.3549999 l -0.0157,-0.1350805 -0.023106,0.00983 -0.024367,0.5766457 -0.045123,0.00973 -0.023464,0.06518 -0.014439,0.058856 -0.019854,-0.025294 -0.0066,-0.097137 0.037705,-0.026196 0.029002,-0.034056 0.020478,-0.04018 0.010126,-0.044123 4.273e-4,-0.043572 -0.00741,-0.044039 -0.017787,-0.042672 -0.027792,-0.035396 z"
     shaper:cutDepth="0"
     shaper:pathType="exterior"
     id="path30"
     inkscape:connector-curvature="0"
     style="vector-effect:non-scaling-stroke;fill:#000000;stroke-width:0.51051074" /><path
     d="m 1.0784429,0.4647242 0.042092,0.016262 0.037115,0.026507 0.027792,0.035396 0.017787,0.042672 0.00741,0.044039 -4.273e-4,0.043572 -0.010126,0.044123 -0.020478,0.04018 -0.029002,0.034056 -0.037705,0.026196 0.0066,0.097137 0.019854,0.025294 0.014439,-0.058856 0.023464,-0.06518 0.045123,-0.00973 0.024367,-0.5766457 0.023106,-0.00983 0.0157,0.1350805 0.028879,0.5496497 0.017701,-0.6738307 0.012983,0.052678 0.023464,0.058856 0.039708,0.2699606 0.014439,-0.4100483 0.067958,0.6852233 0.025055,-0.2024197 0.025055,-0.2615884 0.015496,-0.1117717 0.03712,0.3936021 0.080201,-0.2486503 0.083027,0.2149957 0.057565,-0.2641177 -0.014759,-0.040451 -0.018943,-0.040607 -0.022399,-0.038459 -0.025626,-0.03613 -0.029132,-0.034423 -0.0315,-0.031055 -0.033869,-0.027686 -0.036238,-0.024318 -0.038606,-0.02095 -0.040975,-0.017582 -0.043648,-0.014351 -0.042952,-0.010909 -0.041116,-0.00827 -0.044413,-0.00707 -0.040693,-0.00511 -0.043116,-0.00424 -0.045538,-0.00336 -0.039799,-0.00213 -0.041481,-0.00152 -0.043164,-9.132e-4 -0.044846,-3.044e-4 H 0 v 1.0597716 l 0.00882602,-0.0011 0.0045123,-0.079772 0.01051892,0.080662 0.01164883,-0.070201 0.0049061,0.009 0.0017037,0.059228 0.005516,-0.014478 0.0036098,-0.05156 0.0090247,0.063234 0.0090246,-0.071503 0.0054148,0.061288 0.01263448,-0.00487 5.1306e-4,0.015905 0.01212126,-0.013473 0.0036098,-0.054479 0.00722,0.079286 0.0115456,-0.011334 0.001089,-0.044604 0.00361,0.00973 0.001805,-0.017024 0.003357,0.058821 4.0862e-4,-3.215e-4 0.001396,0.00369 0.0162443,-0.1702455 0.0162443,-0.010701 0.005415,-0.1138213 0.0162443,-0.047669 0.0108296,0.038427 0.00722,0.064693 0.00722,0.1327915 0.0108296,0.010215 0.0108294,-0.068095 0.0162443,-0.1731639 0.00722,0.048155 0.0162443,-0.033563 0.0144394,0.1775417 0.0108296,-0.1590579 0.005415,0.068098 0.0126345,-0.099715 0.0216591,0.100688 0.009025,0.05156 0.0126345,-0.1921342 0.0198542,0.050587 0.00361,0.2232648 0.0180493,-0.3988608 0.0144394,0.2801753 0.0342936,0.1045794 0.0162444,-0.1254952 0.0144394,0.066639 0.009025,0.048642 0.00722,-0.027239 0.009025,-0.055451 0.0198542,0.00195 0.0234641,0.059343 0.0108295,-0.1026337 0.0144393,0.027726 0.0126346,0.022862 0.0144393,-0.048641 0.0162444,-0.038427 0.0216589,0.086095 0.0108295,-0.040373 0.0180491,0.1128485 0.0270739,0.017024 0.007585,-0.1314439 H 0.63093554 V 0.4460873 h 0.27968198 l 0.0367986,6.325e-4 0.0434082,0.00267 0.0430799,0.00542 z"
     shaper:cutDepth="0"
     shaper:pathType="exterior"
     id="path32"
     inkscape:connector-curvature="0"
     style="vector-effect:non-scaling-stroke;fill:#000000;stroke-width:0.51051074" /><path
     d="m 0.83613043,0.9878266 0.005415,-0.042804 0.009703,-0.084262 H 0.72082606 l 0.0034,0.1095552 0.0180491,-0.076854 0.00722,-0.01897 0.0162444,0.033563 0.005415,0.035995 0.0162444,0.00535 0.009025,-0.030158 0.0162444,0.017997 z"
     shaper:cutDepth="0"
     shaper:pathType="exterior"
     id="path34"
     inkscape:connector-curvature="0"
     style="vector-effect:non-scaling-stroke;fill:#000000;stroke-width:0.51051074" /><path
     d="m 0.84154516,0.9450221 -0.005414,0.042804 -0.0234641,-0.050587 -0.0162444,-0.017997 -0.009025,0.030158 -0.0162444,-0.00535 -0.005415,-0.035995 -0.0162445,-0.033563 -0.00722,0.01897 -0.0180491,0.076854 -0.0034,-0.1095552 h 0.1304239 z"
     shaper:cutDepth="0"
     shaper:pathType="exterior"
     id="path36"
     inkscape:connector-curvature="0"
     style="vector-effect:non-scaling-stroke;fill:#000000;stroke-width:0.51051074" /><path
     d="m 0.93844209,0.8575478 0.004181,-0.013214 0.002256,0.012328 -0.00245,3.446e-4 -1.0108e-4,1.41e-5 z"
     shaper:cutDepth="0"
     shaper:pathType="exterior"
     id="path38"
     inkscape:connector-curvature="0"
     style="vector-effect:non-scaling-stroke;fill:#000000;stroke-width:0.51051074" /><path
     d="m 0.94262093,0.844334 -0.004181,0.013214 0.003885,-5.258e-4 1.0109e-4,-1.41e-5 0.00245,-3.446e-4 z"
     shaper:cutDepth="0"
     shaper:pathType="exterior"
     id="path40"
     inkscape:connector-curvature="0"
     style="vector-effect:non-scaling-stroke;fill:#000000;stroke-width:0.51051074" /><path
     d="m 0.93582675,0.8578885 0.002614,-3.407e-4 -0.0228949,0.072395 -0.00635,-0.069476 0.0261131,-0.00251 z"
     shaper:cutDepth="0"
     shaper:pathType="exterior"
     id="path42"
     inkscape:connector-curvature="0"
     style="vector-effect:non-scaling-stroke;fill:#000000;stroke-width:0.51051074" /><path
     d="m 0.93844209,0.8575478 -0.002614,3.407e-4 -5.1562e-4,6.59e-5 -0.0261131,0.00251 0.00635,0.069476 z"
     shaper:cutDepth="0"
     shaper:pathType="exterior"
     id="path44"
     inkscape:connector-curvature="0"
     style="vector-effect:non-scaling-stroke;fill:#000000;stroke-width:0.51051074" /><path
     d="M 0.97853046,0.8512048 0.96788988,0.9824761 0.94487606,0.8566624 Z"
     shaper:cutDepth="0"
     shaper:pathType="exterior"
     id="path46"
     inkscape:connector-curvature="0"
     style="vector-effect:non-scaling-stroke;fill:#000000;stroke-width:0.51051074" /><path
     d="m 0.96788988,0.9824761 0.0106406,-0.1312713 -0.0336544,0.00546 z"
     shaper:cutDepth="0"
     shaper:pathType="exterior"
     id="path48"
     inkscape:connector-curvature="0"
     style="vector-effect:non-scaling-stroke;fill:#000000;stroke-width:0.51051074" /><path
     d="M 3.299852,0.9897723 3.317901,0.9591283 3.336099,0.8240711 3.330149,0.8219511 3.286718,0.8071051 Z"
     shaper:cutDepth="0"
     shaper:pathType="exterior"
     id="path50"
     inkscape:connector-curvature="0"
     style="vector-effect:non-scaling-stroke;fill:#000000;stroke-width:0.51051074" /><path
     d="m 3.3179013,0.9591281 -0.018049,0.030644 -0.01313,-0.1826695 0.043431,0.014846 0.00595,0.00212 z"
     shaper:cutDepth="0"
     shaper:pathType="exterior"
     id="path52"
     inkscape:connector-curvature="0"
     style="vector-effect:non-scaling-stroke;fill:#000000;stroke-width:0.51051074" /><path
     d="m 0.7422837,1.2492297 -0.0183615,-0.00293 0.005718,-0.058555 0.0108295,-0.00827 z"
     shaper:cutDepth="0"
     shaper:pathType="exterior"
     id="path54"
     inkscape:connector-curvature="0"
     style="vector-effect:non-scaling-stroke;fill:#000000;stroke-width:0.51051074" /><path
     d="m 0.72392206,1.2462982 0.0183615,0.00293 -0.001812,-0.069755 -0.0108295,0.00827 z"
     shaper:cutDepth="0"
     shaper:pathType="exterior"
     id="path56"
     inkscape:connector-curvature="0"
     style="vector-effect:non-scaling-stroke;fill:#000000;stroke-width:0.51051074" /><path
     d="m 0.67066129,1.244041 0.025694,1.255e-4 0.009528,7.351e-4 -0.001511,-0.022138 -0.0108295,-0.010701 -0.00722,0.011674 -0.005415,-0.01362 z"
     shaper:cutDepth="0"
     shaper:pathType="exterior"
     id="path58"
     inkscape:connector-curvature="0"
     style="vector-effect:non-scaling-stroke;fill:#000000;stroke-width:0.51051074" /><path
     d="m 0.69635519,1.2441665 -0.025694,-1.255e-4 0.0102454,-0.033922 0.005415,0.01362 0.00722,-0.011674 0.0108295,0.010701 0.001511,0.022138 z"
     shaper:cutDepth="0"
     shaper:pathType="exterior"
     id="path60"
     inkscape:connector-curvature="0"
     style="vector-effect:non-scaling-stroke;fill:#000000;stroke-width:0.51051074" /><path
     d="m 0.67066129,1.244041 -0.002389,0.00791 -0.002386,-0.00793 z"
     shaper:cutDepth="0"
     shaper:pathType="exterior"
     id="path62"
     inkscape:connector-curvature="0"
     style="vector-effect:non-scaling-stroke;fill:#000000;stroke-width:0.51051074" /><path
     d="m 0.66827245,1.2519503 0.002389,-0.00791 -0.004773,-2.19e-5 z"
     shaper:cutDepth="0"
     shaper:pathType="exterior"
     id="path64"
     inkscape:connector-curvature="0"
     style="vector-effect:non-scaling-stroke;fill:#000000;stroke-width:0.51051074" /><path
     d="m 0.66588623,1.2440192 -0.003027,-0.010066 -0.00172,0.010066 z"
     shaper:cutDepth="0"
     shaper:pathType="exterior"
     id="path66"
     inkscape:connector-curvature="0"
     style="vector-effect:non-scaling-stroke;fill:#000000;stroke-width:0.51051074" /><path
     d="m 0.66285767,1.2339529 0.003027,0.010066 h -0.004748 z"
     shaper:cutDepth="0"
     shaper:pathType="exterior"
     id="path68"
     inkscape:connector-curvature="0"
     style="vector-effect:non-scaling-stroke;fill:#000000;stroke-width:0.51051074" /><path
     d="M 0.66113751,1.2440192 0.6502233,1.3078881 0.63397884,1.4110082 0.6309362,1.3962453 V 1.2440192 Z"
     shaper:cutDepth="0"
     shaper:pathType="exterior"
     id="path70"
     inkscape:connector-curvature="0"
     style="vector-effect:non-scaling-stroke;fill:#000000;stroke-width:0.51051074" /><path
     d="m 0.65022319,1.3078881 0.0109142,-0.063869 h -0.0302018 v 0.1522262 l 0.003043,0.014763 z"
     shaper:cutDepth="0"
     shaper:pathType="exterior"
     id="path72"
     inkscape:connector-curvature="0"
     style="vector-effect:non-scaling-stroke;fill:#000000;stroke-width:0.51051074" /><path
     d="m 0.28021373,1.3132387 0.0144394,-0.022375 0.0162443,0.1254952 0.005415,0.017998 0.0162444,-0.017511 0.0216591,-0.00827 0.0198542,0.066639 0.0162443,-0.051074 0.005415,-0.00243 0.0162443,-0.1400877 0.009025,0.072476 0.00722,-0.1337643 0.00722,0.100688 0.009025,-0.1113892 0.009025,0.00973 0.009025,0.041832 0.00361,-0.00341 0.009025,0.031617 0.0108295,0.02043 0.009025,0.1040929 0.0108296,-0.1799738 0.0144394,0.1707319 0.0180491,-0.1619764 0.005415,0.06518 0.0162445,-0.092905 0.00722,0.1969983 0.0108295,-0.1269544 0.0126346,0.1284137 0.005414,-0.2033218 0.0126346,0.022862 0.009025,0.3010913 0.009025,-0.158085 0.004176,0.020259 V 2.0670828 H 0 V 1.1587987 l 7.0384117e-4,8.066e-4 0.0162442988,-0.03113 0.0036099,0.01897 h 0.0072197 l 0.0054148,-0.018484 0.01082952,-0.010701 0.01804926,-9.751e-4 0.01443938,0.023834 0.01263448,-0.00778 0.0054148,0.011187 0.01443939,-0.03113 0.009025,0.040859 0.0162443,0.00487 0.004639,0.00438 0.005937,0.076782 0.0108296,-0.00389 0.0252689,0.6941151 0.0108296,-0.3628661 0.0108296,-0.3147109 0.0144394,0.050101 0.0126345,0.1250089 0.0144394,0.094365 0.0216591,0.028698 0.00722,-0.2772569 z"
     shaper:cutDepth="0"
     shaper:pathType="exterior"
     id="path74"
     inkscape:connector-curvature="0"
     style="vector-effect:non-scaling-stroke;fill:#000000;stroke-width:0.51051074" /><path
     d="m 0.29465312,1.2908635 -0.0144394,0.022375 -0.00722,-0.0394 -0.00722,0.2772569 -0.0216591,-0.028698 -0.0144394,-0.094365 -0.0126345,-0.1250088 -0.0144394,-0.050101 -0.0108296,0.3147108 -0.0108296,0.3628661 -0.0252689,-0.6941151 -0.0108296,0.00389 -0.005937,-0.076783 -0.004639,-0.00438 -0.0162443,-0.00486 -0.009025,-0.040859 -0.01443939,0.031131 -0.0054148,-0.011188 -0.01263448,0.00778 -0.01443838,-0.023829 -0.01804926,9.729e-4 -0.01082952,0.010701 -0.0054148,0.018484 H 0.02055801 L 0.01694814,1.1284742 7.0384117e-4,1.1596048 0,1.1587987 V 2.0670828 H 0.63093554 V 1.3962454 l -0.004176,-0.020259 -0.009025,0.1580851 -0.009025,-0.3010913 -0.0126345,-0.022861 -0.005415,0.2033217 -0.0126345,-0.1284137 -0.0108296,0.1269544 -0.00722,-0.1969983 -0.0162443,0.092905 -0.005415,-0.06518 -0.0180493,0.1619764 -0.0144394,-0.1707319 -0.0108296,0.1799738 -0.009025,-0.1040929 -0.0108295,-0.020429 -0.009025,-0.031617 -0.00361,0.0034 -0.009025,-0.041832 -0.009025,-0.00973 -0.009025,0.1113893 -0.00722,-0.1006881 -0.00722,0.1337643 -0.009025,-0.072476 -0.0162443,0.1400877 -0.005415,0.00243 -0.0162443,0.051074 -0.0198542,-0.066639 -0.0216591,0.00827 -0.0162444,0.017511 -0.005415,-0.017997 z"
     shaper:cutDepth="0"
     shaper:pathType="exterior"
     id="path76"
     inkscape:connector-curvature="0"
     style="vector-effect:non-scaling-stroke;fill:#000000;stroke-width:0.51051074" /><path
     d="m 0.70978571,1.3020511 0.00722,0.015079 0.006917,-0.070832 -0.0180394,-0.00139 z"
     shaper:cutDepth="0"
     shaper:pathType="exterior"
     id="path78"
     inkscape:connector-curvature="0"
     style="vector-effect:non-scaling-stroke;fill:#000000;stroke-width:0.51051074" /><path
     d="M 0.7170054,1.31713 0.7097854,1.302051 0.7058804,1.244903 0.7239198,1.246293 Z"
     shaper:cutDepth="0"
     shaper:pathType="exterior"
     id="path80"
     inkscape:connector-curvature="0"
     style="vector-effect:non-scaling-stroke;fill:#000000;stroke-width:0.51051074" /><path
     d="M 0.84682977,1.2950579 0.82759117,1.2820639 0.8271993,1.2818281 0.8165118,1.2757381 0.8379354,1.2271441 Z"
     shaper:cutDepth="0"
     shaper:pathType="exterior"
     id="path82"
     inkscape:connector-curvature="0"
     style="vector-effect:non-scaling-stroke;fill:#000000;stroke-width:0.51051074" /><path
     d="m 0.82759117,1.2820637 0.0192386,0.012994 -0.008895,-0.067915 -0.0214236,0.048594 0.0106875,0.00609 z"
     shaper:cutDepth="0"
     shaper:pathType="exterior"
     id="path84"
     inkscape:connector-curvature="0"
     style="vector-effect:non-scaling-stroke;fill:#000000;stroke-width:0.51051074" /><path
     d="m 0.93264907,1.4057703 -8.5766e-4,0.014966 -0.0012,-0.018451 8.0151e-4,0.00136 z"
     shaper:cutDepth="0"
     shaper:pathType="exterior"
     id="path86"
     inkscape:connector-curvature="0"
     style="vector-effect:non-scaling-stroke;fill:#000000;stroke-width:0.51051074" /><path
     d="m 0.93179141,1.4207366 8.5766e-4,-0.014966 -0.001256,-0.00213 -8.0151e-4,-0.00136 z"
     shaper:cutDepth="0"
     shaper:pathType="exterior"
     id="path88"
     inkscape:connector-curvature="0"
     style="vector-effect:non-scaling-stroke;fill:#000000;stroke-width:0.51051074" /><path
     d="m 0.93264907,1.4057703 0.006362,-0.1110154 0.00722,0.120631 0.0198543,-0.1366827 0.0162445,0.1887292 0.0126346,-0.023834 0.0162444,-0.1021473 0.014439,-0.093878 0.00541,-0.066639 0.010829,0.057883 0.00722,0.086096 0.00902,0.00778 0.014439,-0.068585 0.012635,-0.011187 0.00902,0.2952543 0.019854,-0.1999169 0.018049,0.034536 0.01083,-0.1824059 0.014439,0.3010913 0.014439,-0.1926206 0.01083,0.071017 0.012635,-0.093878 0.016244,0.1449518 0.00361,0.049128 0.016244,0.072962 0.00624,0.4094005 -0.28178668,-0.5151114 -0.0225074,-0.040349 z"
     shaper:cutDepth="0"
     shaper:pathType="exterior"
     id="path90"
     inkscape:connector-curvature="0"
     style="vector-effect:non-scaling-stroke;fill:#000000;stroke-width:0.51051074" /><path
     d="m 0.93901111,1.2947549 -0.006362,0.1110154 7.0961e-4,0.00121 0.0225074,0.040349 0.28178658,0.5151113 -0.00624,-0.4094005 -0.016244,-0.072962 -0.00361,-0.049128 -0.016244,-0.1449519 -0.012634,0.09388 -0.01083,-0.071017 L 1.1574117,1.5014818 1.1429727,1.2003906 1.1321427,1.3827964 1.1140937,1.3482604 1.0942397,1.5481773 1.0852197,1.252923 1.0725847,1.26411 1.0581457,1.332695 1.0491257,1.324915 1.0419057,1.238819 1.0310757,1.180936 1.0256657,1.247575 1.0112267,1.341453 0.9949824,1.4436003 0.9823479,1.4674343 0.9661036,1.2787051 0.9462494,1.4153878 Z"
     shaper:cutDepth="0"
     shaper:pathType="exterior"
     id="path92"
     inkscape:connector-curvature="0"
     style="vector-effect:non-scaling-stroke;fill:#000000;stroke-width:0.51051074" /><path
     d="m 0.93059023,1.4022852 -2.6388e-4,-4.442e-4 -2.6378e-4,-4.435e-4 -0.0160997,-0.025968 0.008804,-0.093322 z"
     shaper:cutDepth="0"
     shaper:pathType="exterior"
     id="path94"
     inkscape:connector-curvature="0"
     style="vector-effect:non-scaling-stroke;fill:#000000;stroke-width:0.51051074" /><path
     d="m 0.93032635,1.401841 2.6388e-4,4.442e-4 -0.007824,-0.1201771 -0.008804,0.093322 0.0160995,0.025968 z"
     shaper:cutDepth="0"
     shaper:pathType="exterior"
     id="path96"
     inkscape:connector-curvature="0"
     style="vector-effect:non-scaling-stroke;fill:#000000;stroke-width:0.51051074" /><path
     d="m 0.90652246,1.4542992 -0.0110281,-0.1058012 0.007418,0.010431 2.8762e-4,4.152e-4 0.0107626,0.016086 z"
     shaper:cutDepth="0"
     shaper:pathType="exterior"
     id="path98"
     inkscape:connector-curvature="0"
     style="vector-effect:non-scaling-stroke;fill:#000000;stroke-width:0.51051074" /><path
     d="m 0.89549456,1.348498 0.011028,0.1058012 0.00744,-0.078869 -0.0107626,-0.016086 -2.8762e-4,-4.151e-4 z"
     shaper:cutDepth="0"
     shaper:pathType="exterior"
     id="path100"
     inkscape:connector-curvature="0"
     style="vector-effect:non-scaling-stroke;fill:#000000;stroke-width:0.51051074" /><path
     d="m 0.87630569,1.3247468 0.0143484,0.017239 0.00484,0.00651 -0.007022,-0.067363 z"
     shaper:cutDepth="0"
     shaper:pathType="exterior"
     id="path102"
     inkscape:connector-curvature="0"
     style="vector-effect:non-scaling-stroke;fill:#000000;stroke-width:0.51051074" /><path
     d="m 0.89065395,1.3419856 -0.0143484,-0.017239 0.0121675,-0.043611 0.007022,0.067363 z"
     shaper:cutDepth="0"
     shaper:pathType="exterior"
     id="path104"
     inkscape:connector-curvature="0"
     style="vector-effect:non-scaling-stroke;fill:#000000;stroke-width:0.51051074" /><path
     d="m 0.87042399,1.3458286 0.005882,-0.021082 -0.007868,-0.00943 z"
     shaper:cutDepth="0"
     shaper:pathType="exterior"
     id="path106"
     inkscape:connector-curvature="0"
     style="vector-effect:non-scaling-stroke;fill:#000000;stroke-width:0.51051074" /><path
     d="m 0.87630569,1.3247468 -0.005882,0.021081 -0.001986,-0.030515 z"
     shaper:cutDepth="0"
     shaper:pathType="exterior"
     id="path108"
     inkscape:connector-curvature="0"
     style="vector-effect:non-scaling-stroke;fill:#000000;stroke-width:0.51051074" /><path
     d="m 0.86843744,1.3153132 -0.0181966,-0.017469 0.0111585,-0.090644 z"
     shaper:cutDepth="0"
     shaper:pathType="exterior"
     id="path110"
     inkscape:connector-curvature="0"
     style="vector-effect:non-scaling-stroke;fill:#000000;stroke-width:0.51051074" /><path
     d="m 0.85024085,1.2978441 0.0181966,0.017469 -0.007038,-0.1081132 z"
     shaper:cutDepth="0"
     shaper:pathType="exterior"
     id="path112"
     inkscape:connector-curvature="0"
     style="vector-effect:non-scaling-stroke;fill:#000000;stroke-width:0.51051074" /><path
     d="m 0.84933173,1.2970857 9.0871e-4,7.607e-4 -0.001475,0.01199 -0.001935,-0.014776 0.00245,0.00199 z"
     shaper:cutDepth="0"
     shaper:pathType="exterior"
     id="path114"
     inkscape:connector-curvature="0"
     style="vector-effect:non-scaling-stroke;fill:#000000;stroke-width:0.51051074" /><path
     d="m 0.85024085,1.2978441 -9.0871e-4,-7.606e-4 -5.34e-5,-4.43e-5 -0.00245,-0.00199 0.001935,0.014776 z"
     shaper:cutDepth="0"
     shaper:pathType="exterior"
     id="path116"
     inkscape:connector-curvature="0"
     style="vector-effect:non-scaling-stroke;fill:#000000;stroke-width:0.51051074" /><path
     d="m 0.81627626,1.2762711 -0.009025,0.1094435 -0.0162444,0.011674 -0.005415,-0.069071 -0.0180491,0.1264681 -0.0216589,-0.067125 -0.003599,-0.1384305 0.0439683,0.012589 0.0302595,0.013919 z"
     shaper:cutDepth="0"
     shaper:pathType="exterior"
     id="path118"
     inkscape:connector-curvature="0"
     style="vector-effect:non-scaling-stroke;fill:#000000;stroke-width:0.51051074" /><path
     d="m 0.8072516,1.3857146 0.009025,-0.1094435 2.3545e-4,-5.36e-4 -0.0302595,-0.013919 -0.0439682,-0.012589 0.003599,0.1384306 0.0216589,0.067125 0.0180491,-0.126468 0.005415,0.069071 z"
     shaper:cutDepth="0"
     shaper:pathType="exterior"
     id="path120"
     inkscape:connector-curvature="0"
     style="vector-effect:non-scaling-stroke;fill:#000000;stroke-width:0.51051074" /><path
     d="m 1.2414388,1.9693607 0.022458,-0.4552324 0.01083,0.2976864 0.014439,-0.1118756 0.015408,0.3671437 h -0.00968 z"
     shaper:cutDepth="0"
     shaper:pathType="exterior"
     id="path122"
     inkscape:connector-curvature="0"
     style="vector-effect:non-scaling-stroke;fill:#000000;stroke-width:0.51051074" /><path
     d="m 1.2638974,1.5141283 -0.022458,0.4552324 0.053458,0.097722 h 0.00968 L 1.2891664,1.6999391 1.274727,1.8118147 Z"
     shaper:cutDepth="0"
     shaper:pathType="exterior"
     id="path124"
     inkscape:connector-curvature="0"
     style="vector-effect:non-scaling-stroke;fill:#000000;stroke-width:0.51051074" /><path
     d="m 5.2409054,0.0376969 h -0.691466 l -0.3633262,0.9650608 0.012591,0.098404 0.00722,-0.026266 0.016244,-0.027239 0.00541,-0.026753 0.025269,0.081718 0.014439,-0.067125 0.012635,0.049615 0.00542,-0.07734 0.010829,0.064207 0.012635,-0.026266 0.00902,0.042318 0.00902,-0.09631 0.012635,0.023348 0.012635,0.015565 0.019854,0.018484 0.00902,0.054479 0.00902,-0.106525 0.010829,0.1104163 0.00902,-0.049615 0.00722,-0.00584 0.016244,-0.061288 0.014439,0.09777 0.021659,-0.049615 0.016244,-0.01897 0.00722,-0.018484 0.021659,0.106525 0.016244,-0.050101 0.00541,-0.00876 0.016244,0.034536 0.010829,-0.03259 0.00181,-0.00584 0.012635,-0.036968 0.00722,0.086096 0.018049,-0.011187 0.014439,0.014106 0.00542,-0.066153 0.00902,0.036968 0.00902,0.00584 0.00722,-0.01362 0.00722,0.020916 0.00902,-0.026753 0.012635,0.024807 0.00902,0.019943 0.00722,-0.033562 0.00722,0.054479 0.00541,-0.043777 0.010829,0.039886 0.00542,-0.082691 0.00902,-0.030644 0.012635,0.054478 0.00902,0.00827 0.018049,0.00827 0.014439,4.865e-4 0.00181,-0.00389 0.010829,-0.068098 0.00542,0.029671 0.014439,0.053506 0.00361,-0.029185 0.00542,-0.00389 0.00542,0.031617 0.019854,0.00876 0.00902,-0.055938 0.00542,0.051074 0.016244,4.864e-4 0.00902,0.00389 0.00722,0.01897 0.012635,-0.074908 0.00722,0.016051 0.010829,-0.00438 0.01083,0.046696 0.00361,-4.864e-4 0.014439,-0.1070115 0.018049,0.099715 0.00722,-0.00876 0.011732,0.027239 0.00271,-0.1118756 0.00542,0.1211174 0.014439,-0.043777 0.00541,0.043777 0.00902,-0.033562 0.013247,0.033871 0.00119,-0.037276 0.0057,0.031343 0.00152,-0.055664 0.010829,0.031131 0.014439,-0.00535 0.010829,-0.013133 0.00181,-0.00681 0.00993,0.047425 0.013537,-0.017754 0.00362,4.864e-4 0.00536,-0.041633 0.00189,-0.015765 0.00362,0.049128 0.00903,0.020916 0.00179,-0.00195 0.00179,-0.022375 0.014437,0.038913 0.010828,-0.013619 0.00722,-0.055938 0.010828,0.055938 0.012635,-0.016538 0.00722,-0.040373 0.00722,0.034049 0.00812,0.02578 0.00271,-0.038427 0.012635,0.0394 0.00362,0.00195 0.014437,-0.042805 0.00542,0.01897 0.00362,-0.011674 0.011022,0.051541 0.00342,-0.045217 0.011487,0.042251 0.00112,-0.053439 0.00179,0.048642 0.00362,-0.075394 0.00612,0.071293 0.00112,-0.098046 0.012635,0.1016609 0.00542,-0.0394 0.012635,-9.751e-4 0.010246,0.033791 0.00961,-0.044979 0.00903,0.039886 0.00903,-0.026753 0.00542,-0.025294 0.00903,0.0394 0.00362,-0.028212 0.010828,0.028698 0.00903,-0.014592 0.010828,0.034536 0.014442,-0.011187 0.00722,0.010215 0.00903,-0.014106 0.00362,-0.026266 0.013202,0.047554 0.00306,-0.061174 0.00362,0.021889 0.00812,-0.04475 0.00271,0.047182 0.0023,0.036853 0.012119,-0.00378 0.011083,0.00872 0.00337,-0.058821 0.00179,0.017025 0.00362,-0.00973 0.00107,0.044604 0.011548,0.011334 0.00722,-0.079286 0.00362,0.054478 0.012119,0.013473 5.105e-4,-0.015905 0.012635,0.00487 0.00542,-0.061288 0.00903,0.071503 0.00903,-0.063234 0.00362,0.05156 0.00551,0.014478 0.00168,-0.059228 0.0049,-0.009 0.01165,0.070201 0.00689,-0.052798 z"
     shaper:cutDepth="0"
     shaper:pathType="exterior"
     id="path126"
     inkscape:connector-curvature="0"
     style="vector-effect:non-scaling-stroke;fill:#000000;stroke-width:0.51051074" /><path
     d="m 4.5494394,0.0376969 h 0.691466 l 0.3854703,1.0305274 -0.00689,0.052797 -0.01165,-0.070201 -0.0049,0.009 -0.00168,0.059228 -0.00551,-0.014478 -0.00362,-0.05156 -0.00903,0.063234 -0.00903,-0.071503 -0.00542,0.061288 -0.012635,-0.00487 -5.105e-4,0.015905 -0.012119,-0.013473 -0.00362,-0.054479 -0.00722,0.079286 -0.011548,-0.011334 -0.00107,-0.044604 -0.00362,0.00973 -0.00179,-0.017024 -0.00337,0.058821 -0.011083,-0.00872 -0.01212,0.00378 -0.0023,-0.036853 -0.00271,-0.047182 -0.00812,0.04475 -0.00362,-0.021889 -0.00306,0.061174 -0.013202,-0.047554 -0.00362,0.026266 -0.00903,0.014106 -0.00722,-0.010215 -0.014442,0.011187 -0.010828,-0.034536 -0.00903,0.014592 -0.010828,-0.028698 -0.00362,0.028212 -0.00903,-0.0394 -0.00542,0.025294 -0.00903,0.026753 -0.00903,-0.039886 -0.00961,0.044979 -0.010246,-0.033791 -0.012635,9.751e-4 -0.00542,0.0394 -0.012635,-0.1016609 -0.00112,0.098046 -0.00612,-0.071293 -0.00362,0.075394 -0.00179,-0.048641 -0.00112,0.053439 -0.011487,-0.042251 -0.00342,0.045217 -0.011022,-0.051541 -0.00362,0.011674 -0.00542,-0.01897 -0.014437,0.042805 -0.00362,-0.00195 -0.012635,-0.0394 -0.00271,0.038427 -0.00812,-0.02578 -0.00722,-0.034049 -0.00722,0.040373 -0.012635,0.016538 -0.010828,-0.055938 -0.00722,0.055938 -0.010828,0.013619 -0.014437,-0.038913 -0.00179,0.022375 -0.00179,0.00195 -0.00903,-0.020916 -0.00362,-0.049128 -0.00189,0.015765 -0.00536,0.041633 -0.00362,-4.864e-4 -0.013537,0.017754 -0.00993,-0.047426 -0.00181,0.00681 -0.010829,0.013133 -0.014439,0.00535 -0.010829,-0.03113 -0.00152,0.055664 -0.0057,-0.031343 -0.00119,0.037276 -0.013247,-0.033871 -0.00902,0.033563 -0.00542,-0.043777 -0.014439,0.043777 -0.00541,-0.1211175 -0.00271,0.1118756 -0.011732,-0.027239 -0.00722,0.00876 -0.018049,-0.099715 -0.014439,0.1070115 -0.00361,4.864e-4 -0.010829,-0.046696 -0.010829,0.00438 -0.00722,-0.016052 -0.012635,0.074908 -0.00722,-0.01897 -0.00902,-0.00389 -0.016244,-4.864e-4 -0.00542,-0.051074 -0.00902,0.055938 -0.019854,-0.00876 -0.00542,-0.031617 -0.00541,0.00389 -0.00361,0.029185 -0.014439,-0.053506 -0.00542,-0.029671 -0.010829,0.068098 -0.00181,0.00389 -0.014439,-4.865e-4 -0.018049,-0.00827 -0.00902,-0.00827 -0.012635,-0.054479 -0.00902,0.030644 -0.00542,0.082691 -0.010829,-0.039886 -0.00542,0.043777 -0.00722,-0.054479 -0.00722,0.033562 -0.00902,-0.019943 -0.012635,-0.024807 -0.00902,0.026753 -0.00722,-0.020916 -0.00722,0.01362 -0.00902,-0.00584 -0.00902,-0.036968 -0.00542,0.066153 -0.014439,-0.014106 -0.018049,0.011187 -0.00722,-0.086096 -0.012635,0.036968 -0.00181,0.00584 -0.010829,0.03259 -0.016244,-0.034536 -0.00542,0.00876 -0.016244,0.050101 -0.021659,-0.106525 -0.00722,0.018484 -0.016244,0.01897 -0.021659,0.049614 -0.014439,-0.097769 -0.016244,0.061288 -0.00722,0.00584 -0.00902,0.049614 -0.01083,-0.1104163 -0.00902,0.106525 -0.00902,-0.054479 -0.019854,-0.018484 -0.012635,-0.015566 -0.012635,-0.023348 -0.00902,0.09631 -0.00902,-0.042318 -0.012635,0.026266 -0.010829,-0.064207 -0.00542,0.07734 -0.012635,-0.049615 -0.014439,0.067125 -0.025269,-0.081718 -0.00542,0.026753 -0.016244,0.027239 -0.00722,0.026266 -0.012591,-0.098404 z"
     shaper:cutDepth="0"
     shaper:pathType="exterior"
     id="path128"
     inkscape:connector-curvature="0"
     style="vector-effect:non-scaling-stroke;fill:#000000;stroke-width:0.51051074" /><path
     d="m 5.6586951,1.1546282 -0.00883,0.020469 -0.00722,0.00827 -0.016244,-0.03113 -0.00362,0.01897 h -0.00722 l -0.00542,-0.018484 -0.010828,-0.010701 -0.018052,-9.751e-4 -0.014437,0.023834 -0.012635,-0.00778 -0.00542,0.011187 -0.014437,-0.03113 -0.00903,0.040859 -0.016244,0.00487 -0.010828,0.010215 -0.00903,-0.0073 -0.012635,-0.038913 -0.014437,0.00389 -0.016244,0.032103 -0.012635,-0.026266 -0.00542,0.020916 -0.00903,-0.031617 -0.014437,-9.751e-4 -0.00722,0.012647 -0.012635,-0.022375 -0.018046,0.021402 -0.00542,-0.00389 -0.00362,-0.00778 -0.012635,0.026753 -0.00722,-0.031617 -0.00903,0.015565 -0.010828,0.00681 -0.00542,0.00924 L 5.2996531,1.18191 5.2725811,1.152239 5.2653611,1.160509 5.2473151,1.156619 5.2166331,1.223258 5.1949721,1.159051 5.1805301,1.232013 5.1534581,1.166833 5.1336041,1.142512 5.1047251,1.189694 5.0975051,1.169751 5.0830661,1.218879 5.0740461,1.188235 5.0632171,1.162941 5.0577971,1.171211 5.0253081,1.188236 5.0108691,1.170238 4.9892101,1.218393 4.9729661,1.15905 4.9657461,1.226175 4.9513071,1.209637 4.9386721,1.149321 4.9242331,1.213528 4.9079891,1.159049 4.9007691,1.154669 4.8881341,1.166343 4.8773051,1.129375 4.8682851,1.152237 4.8574561,1.166829 4.8376021,1.203797 4.8342121,1.144753 4.8141441,1.175098 4.8069241,1.248547 4.7924851,1.15175 4.7762411,1.233954 4.7581921,1.204283 4.7383381,1.174125 4.7275091,1.16391 4.7130701,1.211579 4.7022411,1.174125 4.6968311,1.221794 4.6896111,1.239305 4.6824111,1.16197 4.6697771,1.147378 4.6607571,1.221313 4.6445131,1.160025 4.6282691,1.236879 4.6156351,1.17705 l -0.00541,0.045237 -0.00361,-0.029185 -0.00902,-0.035508 -0.00361,0.017025 -0.014439,-0.045237 -0.00722,0.085123 -0.017147,-0.066882 -0.00451,0.037697 -0.00541,-0.045237 -0.012634,0.016052 -0.00541,0.06372 -0.010829,-0.06372 -0.00361,-0.01362 -0.010829,0.060316 -0.00541,-0.052533 -0.00902,0.040372 -0.00541,-0.068585 -0.00361,0.053992 -0.014439,0.01216 -0.00361,0.039886 -0.00542,-0.024807 -0.010829,-0.048155 -0.00361,0.073935 -0.00361,-0.059343 -0.014439,0.038427 -0.00902,-0.083177 -0.00902,0.1055522 -0.00902,-0.059829 -0.016244,-0.032103 -0.016244,0.053506 -0.00541,0.028212 -0.00902,-0.073935 -0.016244,0.1002017 -0.010829,-0.056424 -0.00542,-0.052046 -0.00902,0.00681 -0.00902,0.050101 -0.00902,-0.01216 -0.00722,-0.052533 -0.00722,0.071503 -0.010829,-0.043777 -0.00542,-0.00632 -0.018049,0.053992 -0.014439,-0.00195 -0.00541,-0.045237 -0.00722,0.074908 -0.018049,-0.035995 -0.014439,-0.02578 -0.014439,0.023348 -0.023464,0.050587 -0.019854,0.073448 -0.028668,-0.072259 -0.3088138,0.8202659 H 4.428083 L 4.5296242,1.7340876 h 0.7102954 l 0.1012455,0.3329952 h 0.6588345 z"
     shaper:cutDepth="0"
     shaper:pathType="exterior"
     id="path130"
     inkscape:connector-curvature="0"
     style="vector-effect:non-scaling-stroke;fill:#000000;stroke-width:0.51051074" /><path
     d="m 5.6498633,1.1750967 0.00883,-0.020469 0.3413045,0.9124546 H 5.3411651 L 5.2399196,1.7340876 H 4.5296242 L 4.428083,2.0670828 H 3.7854159 l 0.3088138,-0.8202659 0.028668,0.072259 0.019854,-0.073449 0.023464,-0.050587 0.014439,-0.023348 0.014439,0.02578 0.018049,0.035995 0.00722,-0.074908 0.00542,0.045237 0.014439,0.00195 0.018049,-0.053992 0.00541,0.00632 0.01083,0.043777 0.00722,-0.071503 0.00722,0.052533 0.00902,0.01216 0.00902,-0.050101 0.00902,-0.00681 0.00542,0.052046 0.010829,0.056424 0.016244,-0.1002016 0.00902,0.073935 0.00542,-0.028212 0.016244,-0.053506 0.016244,0.032104 0.00902,0.059829 0.00902,-0.1055522 0.00902,0.083177 0.014439,-0.038427 0.00361,0.059343 0.00361,-0.073935 0.010829,0.048155 0.00542,0.024807 0.00361,-0.039886 0.014439,-0.01216 0.00361,-0.053992 0.00541,0.068585 0.00902,-0.040372 0.00541,0.052533 0.010829,-0.060316 0.00361,0.013619 0.010829,0.06372 0.00542,-0.06372 0.012635,-0.016052 0.00541,0.045237 0.00451,-0.037697 0.017147,0.066882 0.00722,-0.085123 0.014439,0.045237 0.00361,-0.017025 0.00902,0.035509 0.00361,0.029185 0.00542,-0.045237 0.012635,0.059829 0.016244,-0.076854 0.016244,0.061288 0.00902,-0.073935 0.012635,0.014592 0.00722,0.07734 0.00722,-0.017511 0.00542,-0.047669 0.010829,0.037454 0.014439,-0.047669 0.010829,0.010215 0.019854,0.030158 0.018049,0.029671 0.016244,-0.082204 0.014439,0.096797 0.00722,-0.073449 0.020068,-0.030345 0.00339,0.059044 0.019854,-0.036968 0.010829,-0.014593 0.00902,-0.022862 0.01083,0.036968 0.012635,-0.011674 0.00722,0.00438 0.016244,0.054479 0.014439,-0.064207 0.012635,0.060315 0.014439,0.016538 0.00722,-0.067125 0.016244,0.059343 0.021659,-0.048155 0.014439,0.017998 0.032489,-0.017024 0.00541,-0.00827 0.010829,0.025294 0.00902,0.030644 0.014439,-0.049128 0.00722,0.019943 0.028879,-0.047182 0.019854,0.024321 0.027072,0.06518 0.014442,-0.072962 0.021661,0.064207 0.030682,-0.066639 0.018047,0.00389 0.00722,-0.00827 0.027072,0.029671 0.012635,-0.010215 0.00542,-0.00924 0.010828,-0.00681 0.00903,-0.015566 0.00722,0.031617 0.012635,-0.026753 0.00362,0.00778 0.00542,0.00389 0.018046,-0.021402 0.012635,0.022375 0.00722,-0.012647 0.014437,9.751e-4 0.00903,0.031617 0.00542,-0.020916 0.012635,0.026266 0.016244,-0.032103 0.014437,-0.00389 0.012635,0.038913 0.00903,0.0073 0.010828,-0.010215 0.016244,-0.00487 0.00903,-0.040859 0.014437,0.031131 0.00542,-0.011187 0.012635,0.00778 0.014437,-0.023834 0.018052,9.75e-4 0.010828,0.010701 0.00542,0.018484 h 0.00722 l 0.00362,-0.01897 0.016244,0.03113 z"
     shaper:cutDepth="0"
     shaper:pathType="exterior"
     id="path132"
     inkscape:connector-curvature="0"
     style="vector-effect:non-scaling-stroke;fill:#000000;stroke-width:0.51051074" /><path
     d="m 1.4696588,1.271407 0.00722,0.1999168 0.01083,0.034049 0.012635,0.1104163 0.012635,0.00876 0.012635,-0.086582 0.018049,-0.1357099 0.019854,0.3896188 0.012635,-0.3035233 0.00902,-0.01216 0.014439,0.022862 0.00541,-0.00292 0.016244,0.097283 0.00722,-0.03794 0.00902,-0.047669 0.00902,0.3570291 0.028879,-0.1853244 0.025269,0.1104164 0.030684,-0.1323051 0.00412,-0.096994 0.2708811,0.5064561 H 1.3124333 l 0.00561,-0.5198782 0.00902,-0.06518 0.023464,0.555973 0.01083,-0.4100483 0.021659,0.4095619 0.018049,-0.4616084 0.00902,-0.1867836 0.021659,0.4562578 0.019854,-0.4888477 z"
     shaper:cutDepth="0"
     shaper:pathType="exterior"
     id="path134"
     inkscape:connector-curvature="0"
     style="vector-effect:non-scaling-stroke;fill:#000000;stroke-width:0.51051074" /><path
     d="M 1.4768785,1.4713238 1.4696585,1.271407 1.4516095,1.35653 1.4317555,1.8453777 1.4100965,1.3891198 l -0.00902,0.1867836 -0.018049,0.4616084 -0.021659,-0.4095619 -0.01083,0.4100484 -0.023464,-0.5559731 -0.00902,0.06518 -0.00561,0.5198782 H 2.0063751 L 1.735494,1.5606267 1.731374,1.6576207 1.70069,1.7899258 1.675421,1.6795095 1.646542,1.8648338 1.637522,1.5078047 l -0.00902,0.047669 -0.00722,0.03794 -0.016244,-0.097283 -0.00541,0.00292 -0.014439,-0.022862 -0.00902,0.01216 L 1.563534,1.7918721 1.54368,1.4022532 1.525631,1.5379631 1.512996,1.6245451 1.500361,1.6157851 1.487726,1.5053687 Z"
     shaper:cutDepth="0"
     shaper:pathType="exterior"
     id="path136"
     inkscape:connector-curvature="0"
     style="vector-effect:non-scaling-stroke;fill:#000000;stroke-width:0.51051074" /><path
     d="m 3.1794647,1.5814871 -0.025719,0.037317 -0.031225,0.030521 -0.038471,0.025334 -0.042028,0.017354 -0.044319,0.010676 -0.045433,0.00521 -0.043896,8.73e-4 -0.043152,-0.00289 -0.040552,-0.00675 -0.042513,-0.012211 -0.039222,-0.017095 -0.035931,-0.02198 -0.03264,-0.026865 -0.02935,-0.031749 -0.024458,-0.035618 -0.019497,-0.039344 -0.015302,-0.04227 -0.011661,-0.044244 -0.00155,0.027462 -0.00847,-0.082674 -0.00128,-0.0092 -0.00843,-0.082284 -0.0071,0.083256 -0.00359,0.041777 -0.00851,-0.04102 -5.259e-4,3.3e-5 -0.00734,-0.035405 -0.018049,-0.046696 -0.00165,0.083793 9.9e-5,-6.2e-6 -0.00733,0.3720095 -0.019854,-0.3701623 -2.17e-5,-1.447e-4 -4.208e-4,2.63e-5 -0.014133,-0.094271 -0.00274,0.095327 8.17e-5,-5.1e-6 -0.00262,0.091 -0.0093,-0.090254 -3.326e-4,2.09e-5 -0.00855,-0.082955 -0.00513,0.083811 1.94e-5,-1.3e-6 -0.00559,0.091325 -0.029003,-0.037118 -0.014316,-0.025143 -0.00669,-0.025585 -6.279e-4,3.94e-5 -0.012667,-0.048414 -0.016244,0.038913 -0.00902,-0.098742 -0.00627,0.1110092 2.84e-5,-1.8e-6 -0.011671,0.2066468 -0.015037,-0.2049758 -2.764e-4,1.73e-5 -0.00648,-0.088375 -0.00283,0.088957 7.59e-5,-4.8e-6 -0.00975,0.306528 -0.025269,-0.2621781 -0.019854,0.2631509 -0.012635,-0.2957407 -0.021659,0.3117925 -0.00722,-0.2626645 -0.010829,-0.035508 -0.021659,0.013619 -0.021659,0.2232648 -0.010002,-0.2522204 -2.125e-4,1.33e-5 -0.00256,-0.064474 -0.00794,0.065131 -0.00817,0.066226 -0.019854,0.059829 -0.025269,-0.026266 -0.00902,-0.05156 -0.00342,-0.044116 -2.842e-4,1.78e-5 -0.014484,-0.186974 -0.010829,0.073935 -0.00491,0.1149297 5.49e-5,-3.4e-6 -0.00945,0.2212117 -0.012818,-0.2198186 -2.479e-4,1.55e-5 -0.00693,-0.118767 -0.00627,0.1195925 3.62e-5,-2.3e-6 -0.00819,0.1563059 0.00888,0.031622 0.01437,0.043074 0.016622,0.041678 0.018875,0.040282 0.021127,0.038886 0.023379,0.03749 0.025632,0.036095 0.027885,0.034698 0.030137,0.033303 0.03307,0.032041 0.035564,0.028385 0.031262,0.020962 0.03376,0.019409 0.036259,0.017856 0.038758,0.016304 0.041256,0.014751 0.043754,0.013198 0.034455,0.00888 0.035861,0.00801 0.037266,0.00713 0.038672,0.00626 0.040077,0.00539 0.041482,0.00451 0.042887,0.00364 0.044293,0.00277 0.045698,0.00189 0.031246,7.76e-4 0.031871,3.882e-4 0.043701,-1.391e-4 0.044895,-0.00115 0.043657,-0.00219 0.042418,-0.00323 0.04118,-0.00427 0.039942,-0.00532 0.038703,-0.00636 0.04481,-0.00901 0.043026,-0.010509 0.041244,-0.012011 0.03946,-0.013512 0.037677,-0.015013 0.041837,-0.019364 0.03977,-0.021275 0.037708,-0.023184 0.035645,-0.025094 0.033582,-0.027003 0.031519,-0.028913 0.029457,-0.030823 0.027394,-0.032732 0.025332,-0.034642 0.023133,-0.036251 0.020562,-0.037032 0.017968,-0.037765 0.015375,-0.038498 0.012782,-0.039231 0.010188,-0.039963 0.00759,-0.040696 0.005,-0.041429 0.00241,-0.042162 -2.491e-4,-0.043892 -0.0032,-0.043876 -3.426e-4,-0.00309 -0.00477,-0.033587 -0.00948,-0.044636 -0.012904,-0.043292 -0.00443,0.00382 -0.012635,0.050587 -0.01083,0.020916 -0.025269,-0.019943 -0.021659,0.091933 -0.016244,-0.099715 -0.023464,0.027726 -0.014439,-0.06372 -0.023464,0.02043 -0.00903,-0.032595 -0.00722,-0.042318 -0.019854,0.047182 -0.021659,0.087555 -0.019854,-0.1488431 -0.01083,0.041832 -0.014439,0.053506 -0.023464,-0.00924 -0.01083,-0.02578 -0.012634,-0.044264 -0.018049,0.1371692 -0.014439,-0.00486 -0.012634,0.016538 -0.00722,-0.064207 -0.018049,0.01362 -0.00902,0.07053 -0.021659,-0.017997 -0.00902,-0.015079 -0.018049,-0.013133 -0.018049,-0.041832 -0.027074,0.1726775 -0.030684,-0.05837 -0.016244,0.04475 -0.016244,-0.1721912 -0.00541,0.052046 -0.014439,-0.074422 -0.01083,0.087068 -0.010829,-0.071017 -0.00902,0.1191719 -0.021659,-0.00341 -0.019854,-0.1707319 -0.014439,0.079286 -0.014439,0.022375 -0.00902,-0.015565 -0.012635,0.039886 -0.019854,-0.044264 -0.00551,0.059198 0.038124,0.021873 0.03456,0.030223 0.027365,0.035664 0.0183,0.040329 0.0074,0.045433 -0.00449,0.045514 z"
     shaper:cutDepth="0"
     shaper:pathType="exterior"
     id="path138"
     inkscape:connector-curvature="0"
     style="vector-effect:non-scaling-stroke;fill:#000000;stroke-width:0.51051074" /><path
     d="m 3.1537458,1.6188045 0.025719,-0.037317 0.016019,-0.042615 0.00449,-0.045514 -0.0074,-0.045433 -0.0183,-0.040329 -0.027365,-0.035664 -0.03456,-0.030223 -0.038124,-0.021873 0.00551,-0.059198 0.019854,0.044264 0.012635,-0.039886 0.00902,0.015566 0.014439,-0.022375 0.014439,-0.079286 0.019854,0.1707319 0.021659,0.00341 0.00902,-0.1191719 0.010829,0.071017 0.01083,-0.087068 0.014439,0.074422 0.00541,-0.052046 0.016244,0.1721912 0.016244,-0.04475 0.030684,0.05837 0.027074,-0.1726775 0.018049,0.041832 0.018049,0.013133 0.00902,0.015079 0.021659,0.017997 0.00902,-0.07053 0.018049,-0.013619 0.00722,0.064207 0.012635,-0.016538 0.014439,0.00487 0.018049,-0.1371692 0.012635,0.044264 0.010829,0.02578 0.023464,0.00924 0.014439,-0.053506 0.010829,-0.041832 0.019854,0.1488432 0.021659,-0.087555 0.019854,-0.047182 0.00722,0.042318 0.00902,0.03259 0.023464,-0.02043 0.014439,0.06372 0.023464,-0.027726 0.016244,0.099715 0.021659,-0.091933 0.025269,0.019943 0.01083,-0.020916 0.012635,-0.050587 0.00443,-0.00382 0.012904,0.043292 0.00948,0.044636 0.00477,0.033587 3.426e-4,0.00309 0.0032,0.043876 2.491e-4,0.043892 -0.00241,0.042162 -0.005,0.041429 -0.00759,0.040696 -0.010188,0.039963 -0.012782,0.039231 -0.015375,0.038498 -0.017969,0.037765 -0.020562,0.037032 -0.023133,0.036251 -0.025332,0.034642 -0.027394,0.032732 -0.029457,0.030823 -0.031519,0.028913 -0.033582,0.027003 -0.035645,0.025094 -0.037708,0.023184 -0.03977,0.021275 -0.041837,0.019364 -0.037677,0.015013 -0.03946,0.013512 -0.041244,0.012011 -0.043026,0.010509 -0.04481,0.00901 -0.038703,0.00636 -0.039942,0.00532 -0.04118,0.00427 -0.042418,0.00323 -0.043657,0.00219 -0.044895,0.00115 -0.043701,1.391e-4 -0.031871,-3.882e-4 -0.031246,-7.76e-4 -0.045698,-0.00189 -0.044293,-0.00277 -0.042887,-0.00364 -0.041482,-0.00451 -0.040077,-0.00539 -0.038672,-0.00626 -0.037266,-0.00713 -0.035861,-0.00801 -0.034455,-0.00888 -0.043754,-0.013198 -0.041256,-0.014751 -0.038758,-0.016304 -0.036259,-0.017856 -0.03376,-0.019409 -0.031262,-0.020962 -0.035564,-0.028385 -0.03307,-0.032041 -0.030137,-0.033303 -0.027885,-0.034698 -0.025632,-0.036095 -0.023379,-0.03749 -0.021127,-0.038886 -0.018875,-0.040282 -0.016622,-0.041678 -0.01437,-0.043074 -0.00889,-0.031622 0.00819,-0.1563059 -3.62e-5,2.3e-6 0.00627,-0.1195925 0.00693,0.118767 2.479e-4,-1.55e-5 0.012818,0.2198186 0.00945,-0.2212117 -5.49e-5,3.4e-6 0.00491,-0.1149297 0.010829,-0.073935 0.014484,0.186974 2.842e-4,-1.78e-5 0.00342,0.044116 0.00902,0.05156 0.025269,0.026266 0.019854,-0.059829 0.00817,-0.066226 0.00794,-0.065131 0.00256,0.064474 2.125e-4,-1.33e-5 0.010002,0.2522204 0.021659,-0.2232648 0.021659,-0.013619 0.010829,0.035508 0.00722,0.2626644 0.021659,-0.3117924 0.012635,0.2957407 0.019854,-0.2631509 0.025269,0.2621781 0.00975,-0.306528 -7.59e-5,4.8e-6 0.00283,-0.088957 0.00648,0.088375 2.764e-4,-1.73e-5 0.015037,0.2049758 0.011671,-0.2066468 -2.84e-5,1.8e-6 0.00627,-0.1110092 0.00902,0.098742 0.016244,-0.038913 0.012667,0.048414 6.279e-4,-3.94e-5 0.00669,0.025585 0.014316,0.025143 0.029003,0.037118 0.00559,-0.091325 -1.94e-5,1.3e-6 0.00513,-0.083811 0.00855,0.082955 3.326e-4,-2.08e-5 0.0093,0.090254 0.00262,-0.091 -8.17e-5,5.1e-6 0.00274,-0.095327 0.014133,0.094271 4.208e-4,-2.63e-5 2.17e-5,1.447e-4 0.019854,0.3701623 0.00733,-0.3720095 -9.9e-5,6.2e-6 0.00165,-0.083793 0.018049,0.046696 0.00734,0.035405 5.259e-4,-3.3e-5 0.00851,0.04102 0.00359,-0.041777 0.0071,-0.083256 0.00843,0.082284 0.00128,0.0092 0.00847,0.082674 0.00155,-0.027462 0.011661,0.044244 0.015302,0.04227 0.019497,0.039344 0.024458,0.035618 0.02935,0.031749 0.03264,0.026865 0.035931,0.02198 0.039222,0.017095 0.042513,0.012211 0.040552,0.00675 0.043152,0.00289 0.043896,-8.73e-4 0.045433,-0.00521 0.044318,-0.010676 0.042028,-0.017354 0.038471,-0.025334 z"
     shaper:cutDepth="0"
     shaper:pathType="exterior"
     id="path140"
     inkscape:connector-curvature="0"
     style="vector-effect:non-scaling-stroke;fill:#000000;stroke-width:0.51051074" /><path
     d="m 2.6636316,0.6227973 -0.029252,-0.033597 -0.014465,-0.042752 0.00399,-0.045124 0.018437,-0.041422 0.029387,-0.033258 0.037206,-0.024727 0.01089,-0.00482 0.043304,-0.012994 0.044569,-0.00599 0.045412,-0.001 0.043252,0.00287 0.043297,0.00736 0.042329,0.012962 0.040264,0.019757 0.034756,0.025797 0.029602,0.032642 0.023019,0.036771 0.017428,0.039465 0.012755,0.040833 0.00967,0.045287 L 3.742563,0.6059083 3.741313,0.5960683 3.735483,0.5575573 3.728363,0.5203843 3.717634,0.4757993 3.704879,0.4333043 3.690098,0.3928993 3.673292,0.3545843 3.654459,0.3183593 3.633601,0.2842243 3.610717,0.2521783 3.585807,0.2222233 3.5588666,0.1943605 3.5299043,0.1685849 3.498916,0.1448993 3.465784,0.1231431 3.43039,0.1031556 3.392734,0.0849366 3.352816,0.0684866 3.310637,0.0538056 3.266196,0.0408936 3.229015,0.0318336 3.190386,0.0239136 3.150309,0.0171236 3.108785,0.0114636 3.065813,0.0069336 3.021394,0.0035336 2.975527,0.0012736 2.940177,3.184e-4 2.904013,0 2.8648,3.122e-4 l -0.038155,9.364e-4 -0.046207,0.00205 -0.044555,0.00302 -0.042902,0.004 -0.04125,0.00497 -0.039598,0.00595 -0.045337,0.00843 -0.042957,0.00983 -0.040578,0.011237 -0.038199,0.012642 -0.041558,0.016525 -0.038842,0.018196 -0.03665,0.019628 -0.039201,0.024185 -0.036338,0.026055 -0.033474,0.027925 -0.030611,0.029794 -0.027747,0.031664 -0.024883,0.033534 -0.022026,0.03503 -0.021381,0.040103 -0.017785,0.040789 -0.014188,0.041474 -0.010591,0.042159 -0.00699,0.042844 -0.00339,0.04353 1.949e-4,0.04588 0.00376,0.046045 0.00733,0.044349 0.010892,0.042653 0.045225,0.057456 0.025269,-0.086582 0.021659,-0.1901885 0.012635,-0.04621 0.034294,0.1921342 0.034293,0.1410605 0.034294,-0.3224936 0.014439,0.2101316 0.034293,0.075881 0.037903,0.036481 0.028879,-0.1527345 0.030684,0.1459247 0.023464,0.088528 0.036099,-0.098742 0.048733,-0.02043 0.027074,0.031131 0.025269,-0.081232 0.039709,0.074422 0.018049,0.016052 0.036099,0.042805 0.023464,-0.1254952 0.032488,0.053019 0.057758,0.1050657 0.018049,-0.1026337 0.028878,0.1016609 0.028879,-0.044264 0.030684,-0.026753 0.066782,-0.043777 0.023464,0.1094436 0.039709,0.030158 0.054148,-0.09631 0.030684,0.1507888 0.012635,0.069071 0.012635,-0.040859 0.012635,-0.1181989 0.019854,-0.016052 0.034294,0.055938 0.00902,-0.034536 0.028879,0.1279273 0.014439,-0.095337 0.018049,0.033076 0.016246,-0.1549941 -0.031053,-0.00994 -0.043619,-0.013243 -0.040243,-0.011572 -0.042181,-0.011558 -0.044119,-0.011544 -0.039359,-0.00988 -0.040782,-0.00987 -0.042206,-0.00986 -0.04363,-0.00985 -0.042632,-0.00929 -0.044008,-0.00994 -0.043268,-0.011301 -0.044101,-0.013922 -0.040666,-0.016739 z"
     shaper:cutDepth="0"
     shaper:pathType="exterior"
     id="path142"
     inkscape:connector-curvature="0"
     style="vector-effect:non-scaling-stroke;fill:#000000;stroke-width:0.51051074" /><path
     d="m 2.6343791,0.5892006 0.029252,0.033597 0.038112,0.02476 0.040666,0.016739 0.0441,0.013922 0.043268,0.011301 0.044008,0.00994 0.042632,0.00929 0.04363,0.00985 0.042206,0.00986 0.040782,0.00987 0.039359,0.00988 0.044119,0.011544 0.042181,0.011558 0.040243,0.011572 0.043619,0.013243 0.031053,0.00994 -0.016247,0.1549941 -0.018049,-0.033076 -0.01444,0.095338 -0.028879,-0.1279273 -0.00902,0.034536 -0.034294,-0.055938 -0.019854,0.016052 -0.012634,0.118199 -0.012634,0.040859 -0.012634,-0.069071 -0.030684,-0.1507889 -0.054148,0.09631 -0.039708,-0.030158 -0.023464,-0.1094436 -0.066782,0.043777 -0.030684,0.026753 -0.028879,0.044264 L 2.8016929,0.7990974 2.7836437,0.9017311 2.7258861,0.7966653 2.6933975,0.743646 2.6699335,0.8691412 2.633835,0.8263366 2.6157858,0.8102849 2.5760774,0.7358633 2.5508085,0.8170948 2.5237346,0.7859641 2.4750016,0.8063936 2.4389032,0.905136 2.4154391,0.8166084 2.3847554,0.6706837 2.3558767,0.8234182 2.3179732,0.786937 2.2836797,0.7110561 2.2692403,0.5009246 2.2349467,0.8234182 2.2006532,0.6823576 2.1663596,0.4902235 2.1537256,0.5364325 2.1320666,0.726621 2.1067976,0.813203 2.0615726,0.755747 2.0506806,0.713094 2.0433506,0.668745 2.0395906,0.6227 2.0393958,0.57682 l 0.00339,-0.04353 0.00699,-0.042844 0.010591,-0.042159 0.014189,-0.041474 0.017785,-0.040789 0.021381,-0.040103 0.022026,-0.03503 0.024884,-0.033534 0.027747,-0.031664 0.030611,-0.029794 0.033474,-0.027925 0.036338,-0.026055 0.039201,-0.024185 0.03665,-0.019628 0.038842,-0.018196 0.041558,-0.016525 0.038199,-0.012642 0.040578,-0.011237 0.042957,-0.00983 0.045337,-0.00843 0.039598,-0.00595 0.04125,-0.00497 0.042902,-0.004 0.044555,-0.00302 0.046207,-0.00205 0.038155,-9.364e-4 0.039213,-3.122e-4 0.036165,3.184e-4 0.03535,9.552e-4 0.045867,0.00226 0.044419,0.0034 0.042972,0.00453 0.041524,0.00566 0.040077,0.00679 0.038629,0.00792 0.037182,0.00906 0.044441,0.012912 0.04218,0.014681 0.039917,0.01645 0.037656,0.018219 0.035394,0.019988 0.033132,0.021756 0.030988,0.023686 0.028962,0.025776 0.026937,0.027865 0.02491,0.029955 0.022885,0.032046 0.020858,0.034135 0.018833,0.036225 0.016806,0.038315 0.014781,0.040405 0.012755,0.042495 0.010729,0.044585 0.00712,0.037173 0.00583,0.03851 0.00126,0.00984 L 3.1494833,0.640867 3.1398133,0.59558 3.1270573,0.554747 3.1096293,0.515282 3.0866103,0.478511 3.0570083,0.445869 3.0222523,0.420072 2.9819883,0.400315 l -0.04233,-0.012962 -0.043297,-0.00736 -0.043252,-0.00287 -0.045412,0.001 -0.044569,0.00599 -0.043304,0.012994 -0.01089,0.00482 -0.037206,0.024727 -0.029388,0.033258 -0.018437,0.041422 -0.00399,0.045124 z"
     shaper:cutDepth="0"
     shaper:pathType="exterior"
     id="path144"
     inkscape:connector-curvature="0"
     style="vector-effect:non-scaling-stroke;fill:#000000;stroke-width:0.51051074" /><path
     d="m 3.4337721,0.8631174 -0.041255,-0.017589 -0.00207,-8.373e-4 -0.00418,-0.00167 -0.041691,-0.015881 0.011231,0.147556 0.025269,-0.00195 0.021659,-0.088041 0.012635,0.059829 0.014439,0.019457 0.01083,0.0394 0.012635,-0.068098 0.019854,0.055938 0.030684,-0.046696 0.00902,0.094365 0.016244,-0.033563 0.014439,-0.049614 0.016244,0.026266 0.027074,0.028698 0.016385,-0.046089 -0.012839,-0.00992 -0.036909,-0.025999 -0.037744,-0.023383 -0.040445,-0.02217 z"
     shaper:cutDepth="0"
     shaper:pathType="exterior"
     id="path146"
     inkscape:connector-curvature="0"
     style="vector-effect:non-scaling-stroke;fill:#000000;stroke-width:0.51051074" /><path
     d="m 3.392517,0.8455289 0.041255,0.017589 0.041511,0.02001 0.040445,0.02217 0.037744,0.023384 0.036909,0.025999 0.012839,0.00992 L 3.586835,1.0106899 3.559761,0.9819919 3.543517,0.9557259 3.529078,1.0053409 3.512834,1.0389029 3.503814,0.9445379 3.47313,0.9912339 3.453276,0.9352959 3.440641,1.0033939 3.429812,0.9639939 3.415373,0.9445369 3.402738,0.8847079 3.381079,0.9727489 3.35581,0.9746989 3.344579,0.8271429 l 0.041691,0.015881 0.00418,0.00167 z"
     shaper:cutDepth="0"
     shaper:pathType="exterior"
     id="path148"
     inkscape:connector-curvature="0"
     style="vector-effect:non-scaling-stroke;fill:#000000;stroke-width:0.51051074" /></svg>